# xmcd
#
# Track frame offsets:
#	150
#	15575
#	39528
#	57625
#	77889
#	95733
#	111618
#	125948
#	143228
#	156629
#	181388
#	198918
#	213791
#	236590
#	253072
#	267423
#	289104
#	305288
#	319028
#
# Disc length: 4460 seconds
#
# Revision: 1
# Processed by: cddbd v1.5PL3 Copyright (c) Steve Scherf et al.
# Submitted via: audiograbber 1.83.01
#
DISCID=27116a13
DTITLE=Various Artist - Explosive 99.
DYEAR=1900
DGENRE=
TTITLE0=Modern Talking feat. Erik Singleton. - You Are Not Alone. (Single Versi
TTITLE0=on)
TTITLE1=Salt'N'Pepa. - Push It. (Again) (Dj Tonka Rmx)
TTITLE2=Loona. - Oye, Oye. (Album Version)
TTITLE3=2 Pac. - Changes. (Single Version)
TTITLE4=Roxette. - Wish I Could Fly. (Single Edit)
TTITLE5=Britney Spears. - Baby One More Time. (Video Version)
TTITLE6=Dr. Alban. - Becouse Of You. (Single Version)
TTITLE7=Mark Ashley. - Mareen. (Single Edit)
TTITLE8=Bad Boys Blue. - Hold You In My Arms '99. (Single Version)
TTITLE9=Technotronic. - Rockin Over The Beat '99. (Maxi Version)
TTITLE10=The Joker. - Let The Beat Go-On. (Single Version)
TTITLE11=Three Drives On A Winyl. - Turkey '2000. (Single Version)
TTITLE12=Rapit. - Hold Me Now. (Maxi Version)
TTITLE13=2-4 Family. - Lean On Me. (Single Version)
TTITLE14=Touch and Go. - Would You...! (Single Version)
TTITLE15=Silent Circle. - Night Train. (Single Version)
TTITLE16=Mike Koglin. - The Silence. (Single Version)
TTITLE17=Ken Laszlo. - What's Your Love. (Single Edit)
TTITLE18=Kelly Family. - Oh It Hurts. (Single Edit)
EXTD=
EXTT0=
EXTT1=
EXTT2=
EXTT3=
EXTT4=
EXTT5=
EXTT6=
EXTT7=
EXTT8=
EXTT9=
EXTT10=
EXTT11=
EXTT12=
EXTT13=
EXTT14=
EXTT15=
EXTT16=
EXTT17=
EXTT18=
PLAYORDER=
